<mxfile host="app.diagrams.net" modified="2022-08-02T07:02:30.649Z" agent="5.0 (Macintosh; Intel Mac OS X 10_15_7) AppleWebKit/537.36 (KHTML, like Gecko) Chrome/103.0.0.0 Safari/537.36" etag="IP9pwvDQk_IW8oFRQ9UK" version="20.2.2" type="github">
  <diagram id="JdDNZ4A5zQvJQ17KiZzx" name="Page-1">
    <mxGraphModel dx="1783" dy="930" grid="1" gridSize="10" guides="1" tooltips="1" connect="1" arrows="1" fold="1" page="1" pageScale="1" pageWidth="1169" pageHeight="827" math="0" shadow="0">
      <root>
        <mxCell id="0" />
        <mxCell id="1" parent="0" />
        <mxCell id="yHf1FjM7pknylxEKN5aU-4" value="" style="outlineConnect=0;dashed=0;verticalLabelPosition=bottom;verticalAlign=top;align=center;html=1;shape=mxgraph.aws3.lambda_function;fillColor=#F58534;gradientColor=none;" vertex="1" parent="1">
          <mxGeometry x="100" y="120" width="69" height="72" as="geometry" />
        </mxCell>
        <mxCell id="yHf1FjM7pknylxEKN5aU-5" value="users" style="sketch=0;outlineConnect=0;gradientColor=none;fontColor=#545B64;strokeColor=none;fillColor=#879196;dashed=0;verticalLabelPosition=bottom;verticalAlign=top;align=center;html=1;fontSize=12;fontStyle=0;aspect=fixed;shape=mxgraph.aws4.illustration_users;pointerEvents=1" vertex="1" parent="1">
          <mxGeometry x="60" y="230" width="100" height="100" as="geometry" />
        </mxCell>
        <mxCell id="yHf1FjM7pknylxEKN5aU-9" value="" style="sketch=0;points=[[0,0,0],[0.25,0,0],[0.5,0,0],[0.75,0,0],[1,0,0],[0,1,0],[0.25,1,0],[0.5,1,0],[0.75,1,0],[1,1,0],[0,0.25,0],[0,0.5,0],[0,0.75,0],[1,0.25,0],[1,0.5,0],[1,0.75,0]];outlineConnect=0;fontColor=#232F3E;gradientColor=#FF4F8B;gradientDirection=north;fillColor=#BC1356;strokeColor=#ffffff;dashed=0;verticalLabelPosition=bottom;verticalAlign=top;align=center;html=1;fontSize=12;fontStyle=0;aspect=fixed;shape=mxgraph.aws4.resourceIcon;resIcon=mxgraph.aws4.eventbridge;" vertex="1" parent="1">
          <mxGeometry x="380" y="241" width="78" height="78" as="geometry" />
        </mxCell>
        <mxCell id="yHf1FjM7pknylxEKN5aU-10" value="" style="group" vertex="1" connectable="0" parent="1">
          <mxGeometry x="500" y="70" width="200" height="490" as="geometry" />
        </mxCell>
        <mxCell id="yHf1FjM7pknylxEKN5aU-8" value="" style="whiteSpace=wrap;html=1;" vertex="1" parent="yHf1FjM7pknylxEKN5aU-10">
          <mxGeometry width="200" height="490" as="geometry" />
        </mxCell>
        <mxCell id="yHf1FjM7pknylxEKN5aU-7" value="RULES" style="whiteSpace=wrap;html=1;fillColor=#F2FF36;" vertex="1" parent="yHf1FjM7pknylxEKN5aU-10">
          <mxGeometry x="8.333333333333334" y="15.806451612903226" width="183.33333333333334" height="47.41935483870967" as="geometry" />
        </mxCell>
      </root>
    </mxGraphModel>
  </diagram>
</mxfile>
